<!DOCTYPE svg PUBLIC "-//W3C//DTD SVG 20010904//EN" "http://www.w3.org/TR/2001/REC-SVG-20010904/DTD/svg10.dtd">
<svg version="1.0" xmlns="http://www.w3.org/2000/svg" width="584px" height="177px" viewBox="0 0 5840 1770" preserveAspectRatio="xMidYMid meet">
<g id="layer101" fill="#2e1707" stroke="none">
 <path d="M4543 1732 c-100 -40 -201 -150 -217 -235 -6 -32 -10 -35 -61 -45 -64 -13 -161 -60 -208 -102 l-34 -29 -24 26 c-30 32 -95 63 -134 63 -40 0 -104 -31 -137 -66 -33 -35 -48 -74 -48 -120 0 -23 -4 -34 -12 -32 -11 4 -15 15 -32 90 -8 37 -63 98 -103 114 -101 43 -216 -12 -247 -117 -7 -24 -18 -45 -24 -47 -6 -2 -22 19 -36 46 -30 60 -73 98 -128 112 -22 7 -57 22 -77 35 -82 53 -160 42 -246 -37 l-56 -51 -28 20 c-145 108 -294 108 -404 2 -55 -53 -57 -54 -57 -37 0 22 -49 75 -85 93 -45 21 -123 22 -162 2 -15 -9 -39 -27 -52 -41 l-24 -25 -46 23 c-63 32 -167 63 -238 71 -117 13 -259 -34 -333 -110 l-33 -34 -46 39 c-60 49 -135 86 -213 105 -83 19 -238 19 -313 0 -196 -52 -343 -191 -389 -371 -20 -78 -21 -186 -2 -223 15 -28 74 -85 95 -92 8 -3 5 -17 -8 -43 -60 -117 -20 -280 94 -385 263 -240 660 -167 808 147 25 53 28 71 23 110 l-6 47 19 -31 c23 -37 94 -86 170 -116 46 -18 76 -22 171 -22 133 -1 194 15 266 70 51 39 48 43 64 -76 14 -102 40 -153 96 -186 48 -28 129 -32 173 -10 42 22 89 81 97 122 6 33 -11 198 -24 234 -3 8 22 -11 56 -42 35 -32 95 -73 138 -94 64 -32 87 -38 157 -42 111 -5 178 20 251 93 l52 53 19 -35 c29 -54 91 -85 167 -83 35 1 88 -6 118 -15 88 -25 196 4 260 70 l32 33 52 -39 c102 -77 210 -91 314 -38 34 17 71 44 83 60 l21 29 28 -20 c175 -125 428 -122 596 7 l42 31 23 -36 c13 -20 40 -47 59 -60 30 -20 44 -23 102 -20 57 3 72 8 107 36 22 18 42 28 45 23 3 -5 -2 -15 -11 -22 -9 -8 -22 -28 -30 -46 -22 -53 -16 -105 20 -175 44 -85 92 -113 193 -113 60 0 77 4 111 27 99 65 107 222 16 319 l-25 27 18 48 c16 48 16 56 -20 364 -21 173 -42 328 -48 343 -38 100 -157 146 -253 97 -21 -11 -39 -19 -40 -17 -1 1 -14 37 -29 80 -33 92 -91 185 -138 220 -86 66 -188 84 -275 49z"/>
 </g>
<g id="layer102" fill="#5e390c" stroke="none">
 <path d="M4543 1732 c-100 -40 -201 -150 -217 -235 -6 -32 -10 -35 -61 -45 -64 -13 -161 -60 -208 -102 l-34 -29 -24 26 c-30 32 -95 63 -134 63 -40 0 -104 -31 -137 -66 -33 -35 -48 -74 -48 -120 0 -23 -4 -34 -12 -32 -11 4 -15 15 -32 90 -8 37 -63 98 -103 114 -101 43 -216 -12 -247 -117 -7 -24 -18 -45 -24 -47 -6 -2 -22 19 -36 46 -30 60 -73 98 -128 112 -22 7 -57 22 -77 35 -82 53 -160 42 -246 -37 l-56 -51 -28 20 c-145 108 -294 108 -404 2 -55 -53 -57 -54 -57 -37 0 22 -49 75 -85 93 -45 21 -123 22 -162 2 -15 -9 -39 -27 -52 -41 l-24 -25 -46 23 c-63 32 -167 63 -238 71 -117 13 -259 -34 -333 -110 l-33 -34 -46 39 c-60 49 -135 86 -213 105 -83 19 -238 19 -313 0 -196 -52 -343 -191 -389 -371 -20 -78 -21 -186 -2 -223 15 -28 74 -85 95 -92 8 -3 5 -17 -8 -43 -60 -117 -20 -280 94 -385 263 -240 660 -167 808 147 25 53 28 71 23 110 l-6 47 19 -31 c23 -37 94 -86 170 -116 46 -18 76 -22 171 -22 133 -1 194 15 266 70 51 39 48 43 64 -76 14 -102 40 -153 96 -186 48 -28 129 -32 173 -10 42 22 89 81 97 122 6 33 -11 198 -24 234 -3 8 22 -11 56 -42 35 -32 95 -73 138 -94 64 -32 87 -38 157 -42 111 -5 178 20 251 93 l52 53 19 -35 c29 -54 91 -85 167 -83 35 1 88 -6 118 -15 88 -25 196 4 260 70 l32 33 52 -39 c102 -77 210 -91 314 -38 34 17 71 44 83 60 l21 29 28 -20 c175 -125 428 -122 596 7 l42 31 23 -36 c13 -20 40 -47 59 -60 30 -20 44 -23 102 -20 57 3 72 8 107 36 22 18 42 28 45 23 3 -5 -2 -15 -11 -22 -9 -8 -22 -28 -30 -46 -22 -53 -16 -105 20 -175 44 -85 92 -113 193 -113 60 0 77 4 111 27 99 65 107 222 16 319 l-25 27 18 48 c16 48 16 56 -20 364 -21 173 -42 328 -48 343 -38 100 -157 146 -253 97 -21 -11 -39 -19 -40 -17 -1 1 -14 37 -29 80 -33 92 -91 185 -138 220 -86 66 -188 84 -275 49z m-96 -572 c51 -17 99 -51 129 -91 27 -38 31 -59 9 -59 -8 0 -15 6 -15 14 0 21 -45 71 -87 97 -43 27 -141 34 -189 14 -38 -16 -104 -73 -104 -90 0 -15 -28 -40 -36 -32 -26 25 68 119 143 144 62 21 92 21 150 3z m-179 -262 c20 -20 14 -56 -9 -63 -15 -5 -28 -1 -42 14 -20 20 -20 21 -2 41 21 23 36 25 53 8z m260 0 c17 -17 15 -43 -4 -59 -31 -26 -70 25 -44 56 15 18 32 19 48 3z"/>
 </g>
<g id="layer103" fill="#02aeef" stroke="none">
 <path d="M4543 1732 c-100 -40 -201 -150 -217 -235 -6 -32 -10 -35 -61 -45 -64 -13 -161 -60 -208 -102 l-34 -29 -24 26 c-30 32 -95 63 -134 63 -40 0 -104 -31 -137 -66 -33 -35 -48 -74 -48 -120 0 -23 -4 -34 -12 -32 -11 4 -15 15 -32 90 -8 37 -63 98 -103 114 -101 43 -216 -12 -247 -117 -7 -24 -18 -45 -24 -47 -6 -2 -22 19 -36 46 -30 60 -73 98 -128 112 -22 7 -57 22 -77 35 -82 53 -160 42 -246 -37 l-56 -51 -28 20 c-145 108 -294 108 -404 2 -55 -53 -57 -54 -57 -37 0 22 -49 75 -85 93 -45 21 -123 22 -162 2 -15 -9 -39 -27 -52 -41 l-24 -25 -46 23 c-63 32 -167 63 -238 71 -117 13 -259 -34 -333 -110 l-33 -34 -46 39 c-60 49 -135 86 -213 105 -83 19 -238 19 -313 0 -196 -52 -343 -191 -389 -371 -20 -78 -21 -186 -2 -223 15 -28 74 -85 95 -92 8 -3 5 -17 -8 -43 -60 -117 -20 -280 94 -385 263 -240 660 -167 808 147 25 53 28 71 23 110 l-6 47 19 -31 c23 -37 94 -86 170 -116 46 -18 76 -22 171 -22 133 -1 194 15 266 70 51 39 48 43 64 -76 14 -102 40 -153 96 -186 48 -28 129 -32 173 -10 42 22 89 81 97 122 6 33 -11 198 -24 234 -3 8 22 -11 56 -42 35 -32 95 -73 138 -94 64 -32 87 -38 157 -42 111 -5 178 20 251 93 l52 53 19 -35 c29 -54 91 -85 167 -83 35 1 88 -6 118 -15 88 -25 196 4 260 70 l32 33 52 -39 c102 -77 210 -91 314 -38 34 17 71 44 83 60 l21 29 28 -20 c175 -125 428 -122 596 7 l42 31 23 -36 c13 -20 40 -47 59 -60 30 -20 44 -23 102 -20 57 3 72 8 107 36 22 18 42 28 45 23 3 -5 -2 -15 -11 -22 -9 -8 -22 -28 -30 -46 -22 -53 -16 -105 20 -175 44 -85 92 -113 193 -113 60 0 77 4 111 27 99 65 107 222 16 319 l-25 27 18 48 c16 48 16 56 -20 364 -21 173 -42 328 -48 343 -38 100 -157 146 -253 97 -21 -11 -39 -19 -40 -17 -1 1 -14 37 -29 80 -33 92 -91 185 -138 220 -86 66 -188 84 -275 49z m-52 -582 c70 -36 140 -140 94 -140 -8 0 -15 4 -15 10 0 20 -66 84 -105 101 -51 24 -129 24 -181 0 -22 -10 -58 -40 -81 -66 -23 -27 -45 -45 -52 -41 -24 15 48 105 109 137 62 32 166 31 231 -1z m-207 -262 c24 -39 -44 -79 -74 -43 -21 25 3 67 37 63 14 -2 31 -11 37 -20z m251 -18 c0 -29 -4 -36 -23 -38 -43 -6 -69 37 -40 66 7 7 24 12 38 10 21 -3 25 -8 25 -38z"/>
 </g>
<g id="layer104" fill="#f8a71a" stroke="none">
 <path d="M4543 1732 c-100 -40 -201 -150 -217 -235 -6 -32 -10 -35 -61 -45 -64 -13 -161 -60 -208 -102 l-34 -29 -24 26 c-30 32 -95 63 -134 63 -40 0 -104 -31 -137 -66 -33 -35 -48 -74 -48 -120 0 -23 -4 -34 -12 -32 -11 4 -15 15 -32 90 -8 37 -63 98 -103 114 -101 43 -216 -12 -247 -117 -7 -24 -18 -45 -24 -47 -6 -2 -22 19 -36 46 -30 60 -73 98 -128 112 -22 7 -57 22 -77 35 -82 53 -160 42 -246 -37 l-56 -51 -28 20 c-145 108 -294 108 -404 2 -55 -53 -57 -54 -57 -37 0 22 -49 75 -85 93 -45 21 -123 22 -162 2 -15 -9 -39 -27 -52 -41 l-24 -25 -46 23 c-63 32 -167 63 -238 71 -117 13 -259 -34 -333 -110 l-33 -34 -46 39 c-60 49 -135 86 -213 105 -83 19 -238 19 -313 0 -196 -52 -343 -191 -389 -371 -20 -78 -21 -186 -2 -223 15 -28 74 -85 95 -92 8 -3 5 -17 -8 -43 -60 -117 -20 -280 94 -385 263 -240 660 -167 808 147 25 53 28 71 23 110 l-6 47 19 -31 c23 -37 94 -86 170 -116 46 -18 76 -22 171 -22 133 -1 194 15 266 70 51 39 48 43 64 -76 14 -102 40 -153 96 -186 48 -28 129 -32 173 -10 42 22 89 81 97 122 6 33 -11 198 -24 234 -3 8 22 -11 56 -42 35 -32 95 -73 138 -94 64 -32 87 -38 157 -42 111 -5 178 20 251 93 l52 53 19 -35 c29 -54 91 -85 167 -83 35 1 88 -6 118 -15 88 -25 196 4 260 70 l32 33 52 -39 c102 -77 210 -91 314 -38 34 17 71 44 83 60 l21 29 28 -20 c175 -125 428 -122 596 7 l42 31 23 -36 c13 -20 40 -47 59 -60 30 -20 44 -23 102 -20 57 3 72 8 107 36 22 18 42 28 45 23 3 -5 -2 -15 -11 -22 -9 -8 -22 -28 -30 -46 -22 -53 -16 -105 20 -175 44 -85 92 -113 193 -113 60 0 77 4 111 27 99 65 107 222 16 319 l-25 27 18 48 c16 48 16 56 -20 364 -21 173 -42 328 -48 343 -38 100 -157 146 -253 97 -21 -11 -39 -19 -40 -17 -1 1 -14 37 -29 80 -33 92 -91 185 -138 220 -86 66 -188 84 -275 49z m178 -95 c91 -48 156 -177 198 -392 27 -139 49 -328 57 -499 l7 -134 -26 -26 c-34 -34 -85 -35 -122 -3 -25 21 -27 28 -36 167 -20 320 -62 557 -119 670 -17 33 -34 60 -39 60 -14 0 -39 -28 -56 -60 -19 -38 -52 -60 -88 -60 -37 0 -87 49 -87 85 0 64 66 151 142 189 64 32 112 33 169 3z m-3759 -278 c149 -31 258 -124 283 -239 l8 -35 16 45 c26 72 47 105 96 148 91 80 222 97 369 48 200 -68 270 -144 197 -217 -40 -39 -72 -37 -173 11 -126 60 -224 70 -275 28 -20 -16 -52 -86 -53 -114 0 -20 3 -20 62 -11 81 13 199 -3 279 -39 74 -33 153 -116 170 -176 25 -96 -22 -184 -123 -228 -76 -34 -227 -34 -311 -1 -119 47 -221 184 -249 334 -7 37 -15 67 -19 67 -4 0 -12 -13 -19 -30 -19 -45 -110 -125 -190 -165 -40 -20 -131 -59 -203 -86 -155 -58 -191 -78 -195 -107 -5 -32 36 -79 92 -107 57 -29 146 -34 199 -11 39 16 91 69 121 122 37 67 99 79 146 29 76 -81 -68 -278 -239 -329 -171 -51 -400 34 -471 175 -51 99 -45 181 16 249 48 52 93 78 264 145 236 93 310 141 310 201 0 41 -17 62 -73 92 -47 24 -62 27 -152 27 -107 0 -171 -19 -224 -68 -37 -34 -71 -115 -71 -170 0 -40 -5 -54 -29 -78 -39 -39 -88 -40 -126 -1 -26 26 -27 30 -22 102 3 41 15 101 27 133 42 111 166 215 301 251 66 18 189 20 261 5z m2018 -19 c11 -11 20 -24 20 -30 0 -5 18 -10 41 -10 81 0 102 -30 124 -182 17 -113 51 -213 101 -298 36 -62 78 -105 92 -96 31 19 39 286 16 483 -6 48 -5 54 24 82 39 40 81 41 122 4 26 -24 32 -40 44 -120 17 -108 63 -221 130 -322 49 -74 111 -135 127 -126 23 15 3 246 -37 438 -17 76 -17 79 3 105 11 15 32 33 48 41 24 12 32 11 62 -3 44 -21 56 -50 84 -211 16 -92 23 -171 23 -270 1 -131 -1 -144 -24 -190 -19 -35 -37 -55 -69 -72 -93 -49 -190 -17 -293 97 l-62 68 -22 -55 c-13 -31 -33 -67 -46 -80 -52 -57 -153 -70 -224 -29 -35 20 -43 21 -59 10 -39 -28 -106 -9 -124 35 -6 14 -29 112 -50 218 -22 106 -45 209 -50 230 -6 21 -11 54 -11 73 0 60 -14 67 -44 24 -20 -30 -26 -51 -26 -95 0 -60 22 -202 41 -257 14 -42 -9 -122 -50 -179 -37 -52 -118 -93 -181 -93 -59 0 -146 30 -203 68 -145 100 -218 263 -220 492 -2 129 6 155 67 208 94 82 202 62 332 -60 l52 -49 25 44 c14 24 46 62 71 85 38 35 52 42 86 42 27 0 47 -7 60 -20z m-856 -23 c16 -16 26 -41 31 -78 4 -30 31 -226 61 -437 30 -210 54 -387 54 -392 0 -4 -12 -22 -26 -39 -21 -25 -33 -31 -65 -31 -61 0 -83 29 -98 126 -57 379 -109 797 -101 818 21 57 102 75 144 33z m3045 -15 c22 -22 29 -40 35 -92 4 -36 21 -175 37 -309 25 -201 28 -248 18 -273 -14 -35 -37 -48 -81 -48 -36 1 -59 14 -76 46 -10 20 -82 559 -82 618 0 17 11 39 29 57 39 38 83 39 120 1z m-678 -152 c70 -36 140 -140 94 -140 -8 0 -15 4 -15 10 0 20 -66 84 -105 101 -51 24 -129 24 -181 0 -22 -10 -58 -40 -81 -66 -23 -27 -45 -45 -52 -41 -24 15 48 105 109 137 62 32 166 31 231 -1z m-207 -262 c24 -39 -44 -79 -74 -43 -21 25 3 67 37 63 14 -2 31 -11 37 -20z m251 -18 c0 -29 -4 -36 -23 -38 -43 -6 -69 37 -40 66 7 7 24 12 38 10 21 -3 25 -8 25 -38z m751 -414 c41 -43 51 -95 27 -144 -23 -47 -69 -61 -134 -41 -36 12 -48 22 -66 59 -30 57 -29 81 3 119 49 59 119 62 170 7z"/>
 <path d="M1491 842 c-23 -7 -22 -9 28 -54 58 -52 92 -63 177 -56 67 6 85 20 60 47 -45 49 -194 85 -265 63z"/>
 <path d="M2463 1154 c-12 -31 5 -189 27 -246 28 -74 56 -115 108 -155 71 -54 143 -56 150 -3 13 85 -125 324 -228 395 -42 29 -49 30 -57 9z"/>
 </g>
<g id="layer105" fill="#fdca15" stroke="none">
 <path d="M4543 1732 c-100 -40 -201 -150 -217 -235 -6 -32 -10 -35 -61 -45 -64 -13 -161 -60 -208 -102 l-34 -29 -24 26 c-30 32 -95 63 -134 63 -40 0 -104 -31 -137 -66 -33 -35 -48 -74 -48 -120 0 -23 -4 -34 -12 -32 -11 4 -15 15 -32 90 -8 37 -63 98 -103 114 -101 43 -216 -12 -247 -117 -7 -24 -18 -45 -24 -47 -6 -2 -22 19 -36 46 -30 60 -73 98 -128 112 -22 7 -57 22 -77 35 -82 53 -160 42 -246 -37 l-56 -51 -28 20 c-145 108 -294 108 -404 2 -55 -53 -57 -54 -57 -37 0 22 -49 75 -85 93 -45 21 -123 22 -162 2 -15 -9 -39 -27 -52 -41 l-24 -25 -46 23 c-63 32 -167 63 -238 71 -117 13 -259 -34 -333 -110 l-33 -34 -46 39 c-60 49 -135 86 -213 105 -83 19 -238 19 -313 0 -196 -52 -343 -191 -389 -371 -20 -78 -21 -186 -2 -223 15 -28 74 -85 95 -92 8 -3 5 -17 -8 -43 -60 -117 -20 -280 94 -385 263 -240 660 -167 808 147 25 53 28 71 23 110 l-6 47 19 -31 c23 -37 94 -86 170 -116 46 -18 76 -22 171 -22 133 -1 194 15 266 70 51 39 48 43 64 -76 14 -102 40 -153 96 -186 48 -28 129 -32 173 -10 42 22 89 81 97 122 6 33 -11 198 -24 234 -3 8 22 -11 56 -42 35 -32 95 -73 138 -94 64 -32 87 -38 157 -42 111 -5 178 20 251 93 l52 53 19 -35 c29 -54 91 -85 167 -83 35 1 88 -6 118 -15 88 -25 196 4 260 70 l32 33 52 -39 c102 -77 210 -91 314 -38 34 17 71 44 83 60 l21 29 28 -20 c175 -125 428 -122 596 7 l42 31 23 -36 c13 -20 40 -47 59 -60 30 -20 44 -23 102 -20 57 3 72 8 107 36 22 18 42 28 45 23 3 -5 -2 -15 -11 -22 -9 -8 -22 -28 -30 -46 -22 -53 -16 -105 20 -175 44 -85 92 -113 193 -113 60 0 77 4 111 27 99 65 107 222 16 319 l-25 27 18 48 c16 48 16 56 -20 364 -21 173 -42 328 -48 343 -38 100 -157 146 -253 97 -21 -11 -39 -19 -40 -17 -1 1 -14 37 -29 80 -33 92 -91 185 -138 220 -86 66 -188 84 -275 49z m178 -95 c91 -48 156 -177 198 -392 27 -139 49 -328 57 -499 l7 -134 -26 -26 c-34 -34 -85 -35 -122 -3 -25 21 -27 29 -36 167 -5 80 -14 149 -19 154 -7 7 -10 1 -10 -16 0 -15 -5 -30 -12 -34 -7 -4 -8 -3 -4 4 5 9 -19 12 -88 12 -80 0 -97 3 -106 18 -11 16 -11 16 -6 0 18 -58 -66 -91 -94 -37 -8 13 -7 26 0 42 l11 22 -17 -22 c-14 -20 -25 -23 -84 -23 -45 0 -70 4 -73 13 -3 6 -6 0 -6 -15 -2 -52 -75 -62 -87 -13 -3 13 -3 30 1 37 3 7 0 5 -8 -5 -13 -16 -27 -18 -96 -15 -45 2 -81 3 -81 3 -1 0 -5 -44 -10 -98 -11 -126 -36 -181 -99 -214 -93 -49 -190 -17 -293 97 l-62 68 -22 -55 c-13 -31 -33 -67 -46 -80 -52 -57 -153 -70 -224 -29 -35 20 -43 21 -59 10 -39 -28 -106 -9 -124 35 -6 14 -29 112 -50 218 -22 106 -45 209 -50 230 -6 21 -11 54 -11 73 0 60 -14 67 -44 24 -20 -30 -26 -51 -26 -95 0 -60 22 -202 41 -257 14 -42 -9 -122 -50 -179 -37 -52 -118 -93 -181 -93 -59 0 -146 30 -203 68 -145 100 -218 263 -220 492 -2 129 6 155 67 208 94 82 202 62 332 -60 l52 -49 25 44 c14 24 46 62 71 85 38 35 52 42 86 42 39 0 80 -26 80 -50 0 -5 18 -10 41 -10 81 0 102 -30 124 -182 17 -113 51 -213 101 -298 36 -62 78 -105 92 -96 31 19 39 286 16 483 -6 48 -5 54 24 82 39 40 81 41 122 4 26 -24 32 -40 44 -120 17 -108 63 -221 130 -322 49 -74 111 -135 127 -126 23 15 3 246 -37 438 -17 76 -17 79 3 105 11 15 32 33 48 41 24 12 32 11 62 -3 39 -19 55 -50 73 -150 l13 -70 23 51 c61 140 212 233 377 233 l68 0 -20 26 c-12 15 -21 38 -21 51 0 62 67 150 142 187 64 32 112 33 169 3z m-3759 -278 c149 -31 258 -124 283 -239 l8 -35 16 45 c26 72 47 105 96 148 91 80 222 97 369 48 200 -68 270 -144 197 -217 -40 -39 -72 -37 -173 11 -126 60 -224 70 -275 28 -20 -16 -52 -86 -53 -114 0 -20 3 -20 62 -11 81 13 199 -3 279 -39 74 -33 153 -116 170 -176 25 -96 -22 -184 -123 -228 -76 -34 -227 -34 -311 -1 -119 47 -221 184 -249 334 -7 37 -15 67 -19 67 -4 0 -12 -13 -19 -30 -19 -45 -110 -125 -190 -165 -40 -20 -131 -59 -203 -86 -155 -58 -191 -78 -195 -107 -5 -32 36 -79 92 -107 57 -29 146 -34 199 -11 39 16 91 69 121 122 37 67 99 79 146 29 76 -81 -68 -278 -239 -329 -171 -51 -400 34 -471 175 -51 99 -45 181 16 249 48 52 93 78 264 145 236 93 310 141 310 201 0 41 -17 62 -73 92 -47 24 -62 27 -152 27 -107 0 -171 -19 -224 -68 -37 -34 -71 -115 -71 -170 0 -40 -5 -54 -29 -78 -39 -39 -88 -40 -126 -1 -26 26 -27 30 -22 102 3 41 15 101 27 133 42 111 166 215 301 251 66 18 189 20 261 5z m1162 -42 c16 -16 26 -41 31 -78 4 -30 31 -226 61 -437 30 -210 54 -387 54 -392 0 -4 -12 -22 -26 -39 -21 -25 -33 -31 -65 -31 -61 0 -83 29 -98 126 -57 379 -109 797 -101 818 21 57 102 75 144 33z m3045 -15 c22 -22 29 -40 35 -92 4 -36 21 -175 37 -309 25 -201 28 -248 18 -273 -14 -35 -37 -48 -81 -48 -36 1 -59 14 -76 46 -10 20 -82 559 -82 618 0 17 11 39 29 57 39 38 83 39 120 1z m117 -846 c41 -43 51 -95 27 -144 -23 -47 -69 -61 -134 -41 -36 12 -48 22 -66 59 -30 57 -29 81 3 119 49 59 119 62 170 7z"/>
 <path d="M4624 1472 c-6 -4 -23 -26 -38 -50 -15 -24 -40 -49 -56 -56 l-29 -12 49 -22 c64 -29 145 -103 181 -166 36 -64 37 -44 4 91 -23 96 -76 223 -93 223 -4 0 -12 -4 -18 -8z"/>
 <path d="M2463 1154 c-12 -31 5 -189 27 -246 28 -74 56 -115 108 -155 71 -54 143 -56 150 -3 13 85 -125 324 -228 395 -42 29 -49 30 -57 9z"/>
 <path d="M1491 842 c-23 -7 -22 -9 28 -54 58 -52 92 -63 177 -56 67 6 85 20 60 47 -45 49 -194 85 -265 63z"/>
 </g>
<g id="layer106" fill="#fdf766" stroke="none">
 <path d="M4543 1732 c-100 -40 -201 -150 -217 -235 -6 -32 -10 -35 -61 -45 -64 -13 -161 -60 -208 -102 l-34 -29 -24 26 c-30 32 -95 63 -134 63 -40 0 -104 -31 -137 -66 -33 -35 -48 -74 -48 -120 0 -23 -4 -34 -12 -32 -11 4 -15 15 -32 90 -8 37 -63 98 -103 114 -101 43 -216 -12 -247 -117 -7 -24 -18 -45 -24 -47 -6 -2 -22 19 -36 46 -30 60 -73 98 -128 112 -22 7 -57 22 -77 35 -82 53 -160 42 -246 -37 l-56 -51 -28 20 c-145 108 -294 108 -404 2 -55 -53 -57 -54 -57 -37 0 22 -49 75 -85 93 -45 21 -123 22 -162 2 -15 -9 -39 -27 -52 -41 l-24 -25 -46 23 c-63 32 -167 63 -238 71 -117 13 -259 -34 -333 -110 l-33 -34 -46 39 c-60 49 -135 86 -213 105 -83 19 -238 19 -313 0 -196 -52 -343 -191 -389 -371 -20 -78 -21 -186 -2 -223 15 -28 74 -85 95 -92 8 -3 5 -17 -8 -43 -60 -117 -20 -280 94 -385 263 -240 660 -167 808 147 25 53 28 71 23 110 l-6 47 19 -31 c23 -37 94 -86 170 -116 46 -18 76 -22 171 -22 133 -1 194 15 266 70 51 39 48 43 64 -76 14 -102 40 -153 96 -186 48 -28 129 -32 173 -10 42 22 89 81 97 122 6 33 -11 198 -24 234 -3 8 22 -11 56 -42 35 -32 95 -73 138 -94 64 -32 87 -38 157 -42 111 -5 178 20 251 93 l52 53 19 -35 c29 -54 91 -85 167 -83 35 1 88 -6 118 -15 88 -25 196 4 260 70 l32 33 52 -39 c102 -77 210 -91 314 -38 34 17 71 44 83 60 l21 29 28 -20 c175 -125 428 -122 596 7 l42 31 23 -36 c13 -20 40 -47 59 -60 30 -20 44 -23 102 -20 57 3 72 8 107 36 22 18 42 28 45 23 3 -5 -2 -15 -11 -22 -9 -8 -22 -28 -30 -46 -22 -53 -16 -105 20 -175 44 -85 92 -113 193 -113 60 0 77 4 111 27 99 65 107 222 16 319 l-25 27 18 48 c16 48 16 56 -20 364 -21 173 -42 328 -48 343 -38 100 -157 146 -253 97 -21 -11 -39 -19 -40 -17 -1 1 -14 37 -29 80 -33 92 -91 185 -138 220 -86 66 -188 84 -275 49z m178 -95 c91 -48 156 -177 198 -392 27 -139 49 -328 57 -499 l7 -134 -26 -26 c-34 -34 -85 -35 -122 -3 -25 21 -27 29 -35 156 -5 73 -11 135 -13 137 -2 2 -9 -15 -16 -38 -31 -105 -135 -218 -238 -259 -83 -33 -233 -33 -316 0 -63 25 -181 125 -193 164 -6 17 -10 10 -21 -37 -18 -79 -45 -120 -97 -145 -93 -45 -187 -13 -288 99 l-62 68 -22 -55 c-13 -31 -33 -67 -46 -80 -52 -57 -153 -70 -224 -29 -35 20 -43 21 -59 10 -39 -28 -106 -9 -124 35 -6 14 -29 112 -50 218 -22 106 -45 209 -50 230 -6 21 -11 54 -11 73 0 60 -14 67 -44 24 -20 -30 -26 -51 -26 -95 0 -60 22 -202 41 -257 14 -42 -9 -122 -50 -179 -37 -52 -118 -93 -181 -93 -59 0 -146 30 -203 68 -145 100 -218 263 -220 492 -2 129 6 155 67 208 94 82 202 62 332 -60 l52 -49 25 44 c14 24 46 62 71 85 38 35 52 42 86 42 39 0 80 -26 80 -50 0 -5 18 -10 41 -10 81 0 102 -30 124 -182 17 -113 51 -213 101 -298 36 -62 78 -105 92 -96 31 19 39 286 16 483 -6 48 -5 54 24 82 39 40 81 41 122 4 26 -24 32 -40 44 -120 17 -108 63 -221 130 -322 49 -74 111 -135 127 -126 23 15 3 246 -37 438 -17 76 -17 79 3 105 11 15 32 33 48 41 24 12 32 11 62 -3 40 -19 55 -50 73 -151 13 -67 14 -69 24 -40 21 57 44 90 100 143 81 77 149 105 263 110 l93 4 -20 26 c-34 43 -21 99 40 174 37 44 121 88 170 88 20 0 57 -10 81 -23z m-3759 -278 c149 -31 258 -124 283 -239 l8 -35 16 45 c26 72 47 105 96 148 91 80 222 97 369 48 200 -68 270 -144 197 -217 -40 -39 -72 -37 -173 11 -126 60 -224 70 -275 28 -20 -16 -52 -86 -53 -114 0 -20 3 -20 62 -11 81 13 199 -3 279 -39 74 -33 153 -116 170 -176 25 -96 -22 -184 -123 -228 -76 -34 -227 -34 -311 -1 -119 47 -221 184 -249 334 -7 37 -15 67 -19 67 -4 0 -12 -13 -19 -30 -19 -45 -110 -125 -190 -165 -40 -20 -131 -59 -203 -86 -155 -58 -191 -78 -195 -107 -5 -32 36 -79 92 -107 57 -29 146 -34 199 -11 39 16 91 69 121 122 37 67 99 79 146 29 76 -81 -68 -278 -239 -329 -171 -51 -400 34 -471 175 -51 99 -45 181 16 249 48 52 93 78 264 145 236 93 310 141 310 201 0 41 -17 62 -73 92 -47 24 -62 27 -152 27 -107 0 -171 -19 -224 -68 -37 -34 -71 -115 -71 -170 0 -40 -5 -54 -29 -78 -39 -39 -88 -40 -126 -1 -26 26 -27 30 -22 102 3 41 15 101 27 133 42 111 166 215 301 251 66 18 189 20 261 5z m1162 -42 c16 -16 26 -41 31 -78 4 -30 31 -226 61 -437 30 -210 54 -387 54 -392 0 -4 -12 -22 -26 -39 -21 -25 -33 -31 -65 -31 -61 0 -83 29 -98 126 -57 379 -109 797 -101 818 21 57 102 75 144 33z m3045 -15 c22 -22 29 -40 35 -92 4 -36 21 -175 37 -309 25 -201 28 -248 18 -273 -14 -35 -37 -48 -81 -48 -36 1 -59 14 -76 46 -10 20 -82 559 -82 618 0 17 11 39 29 57 39 38 83 39 120 1z m117 -846 c41 -43 51 -95 27 -144 -23 -47 -69 -61 -134 -41 -36 12 -48 22 -66 59 -30 57 -29 81 3 119 49 59 119 62 170 7z"/>
 <path d="M4624 1472 c-6 -4 -23 -27 -38 -51 -16 -24 -40 -48 -56 -54 l-28 -11 49 -23 c62 -28 161 -121 188 -176 28 -57 27 -26 -4 100 -23 96 -76 223 -93 223 -4 0 -12 -4 -18 -8z"/>
 <path d="M2463 1154 c-12 -31 5 -189 27 -246 28 -74 56 -115 108 -155 71 -54 143 -56 150 -3 13 85 -125 324 -228 395 -42 29 -49 30 -57 9z"/>
 <path d="M1491 842 c-23 -7 -22 -9 28 -54 58 -52 92 -63 177 -56 67 6 85 20 60 47 -45 49 -194 85 -265 63z"/>
 </g>

</svg>