<?xml version="1.0" standalone="no"?>
<!DOCTYPE svg PUBLIC "-//W3C//DTD SVG 20010904//EN"
 "http://www.w3.org/TR/2001/REC-SVG-20010904/DTD/svg10.dtd">
<svg version="1.0" xmlns="http://www.w3.org/2000/svg"
 width="200.000000pt" height="200.000000pt" viewBox="0 0 200.000000 200.000000"
 preserveAspectRatio="xMidYMid meet">
<metadata>
Created by potrace 1.10, written by Peter Selinger 2001-2011
</metadata>
<g transform="translate(0.000000,200.000000) scale(0.100000,-0.100000)"
fill="#000000" stroke="none">
<path d="M524 1266 c-21 -21 -34 -44 -34 -59 0 -22 -4 -25 -32 -23 l-31 1 -18
-90 c-10 -49 -18 -95 -18 -101 -1 -7 23 -15 54 -19 38 -4 55 -11 55 -21 0 -18
3 -18 109 2 l88 16 -10 49 c-5 27 -14 49 -19 49 -5 0 -6 -16 -2 -35 7 -38 15
-33 -94 -55 -29 -5 -54 -10 -56 -10 -2 0 -6 22 -10 49 -4 27 -13 67 -20 88
l-14 38 5 -55 c3 -30 10 -63 15 -73 8 -16 5 -17 -34 -11 -24 4 -44 7 -45 8 0
1 6 36 14 79 13 61 19 77 34 77 11 0 22 -12 29 -35 19 -56 95 -82 164 -55 16
6 27 6 31 0 12 -19 54 -10 71 15 20 31 32 32 36 3 4 -28 26 -35 34 -11 27 85
44 98 36 28 -4 -36 -1 -45 10 -45 9 0 23 19 32 45 22 56 36 58 29 4 -5 -35 -3
-41 15 -46 17 -4 19 -9 11 -30 -14 -38 -11 -90 6 -97 24 -9 52 27 59 77 7 49
18 58 58 50 14 -3 29 0 32 6 5 7 13 7 26 -2 15 -9 24 -9 39 0 14 9 21 9 30 0
9 -9 16 -8 31 1 12 7 20 8 20 2 0 -22 28 -8 35 17 3 14 13 36 22 47 15 20 15
20 10 -14 -2 -19 -2 -41 0 -47 6 -16 45 -17 61 -1 9 9 12 9 12 0 0 -20 28 -14
44 10 9 12 16 17 16 10 0 -7 -18 -32 -40 -56 -42 -45 -53 -89 -24 -100 22 -8
60 34 73 80 6 23 24 50 43 66 38 31 32 48 -7 22 -27 -18 -27 -17 -22 1 17 62
18 85 4 85 -9 0 -21 -18 -29 -42 -17 -49 -45 -68 -34 -22 4 16 9 37 12 47 5
14 1 18 -12 15 -12 -2 -22 -18 -29 -47 -15 -64 -38 -67 -33 -6 2 31 -1 50 -9
52 -12 4 -39 -19 -60 -53 -10 -15 -10 -13 -2 16 11 43 12 40 -5 40 -16 0 -26
-21 -26 -54 0 -22 -17 -46 -33 -46 -4 0 -5 20 -2 44 7 41 5 44 -20 50 -33 8
-61 -13 -82 -61 -7 -19 -21 -33 -30 -33 -13 0 -14 3 -5 12 17 17 15 63 -4 79
-12 10 -20 10 -35 1 -11 -7 -19 -8 -19 -2 0 5 -7 10 -15 10 -11 0 -15 -11 -15
-38 0 -36 -14 -62 -33 -62 -5 0 -6 19 -3 44 4 25 3 47 -3 50 -15 10 -41 -5
-57 -33 l-15 -26 6 27 c9 48 -28 48 -58 0 l-17 -27 6 33 c8 39 -12 44 -26 7
-5 -14 -12 -25 -16 -25 -3 0 -15 11 -26 25 -11 14 -28 25 -38 25 -22 0 -60
-45 -60 -70 0 -18 -27 -30 -68 -30 -24 0 -79 47 -68 58 4 3 11 0 16 -8 7 -11
17 -12 64 -1 31 7 56 17 56 22 0 6 -9 7 -22 3 -20 -6 -108 -8 -113 -2 -2 2 -1
15 2 30 7 36 39 68 68 68 21 0 25 -5 25 -31 0 -24 4 -30 18 -27 23 4 28 51 7
72 -29 28 -83 20 -121 -18z m210 -157 c-9 -14 -31 -10 -38 7 -3 8 -1 25 5 36
10 19 11 19 25 -7 8 -15 11 -31 8 -36z m336 42 c0 -10 -9 -29 -20 -42 l-19
-24 -1 36 c0 20 3 39 7 42 13 14 33 6 33 -12z m124 -8 c-8 -34 -19 -47 -33
-39 -10 7 -5 32 12 54 16 21 28 13 21 -15z m-200 -122 c-4 -28 -10 -51 -15
-51 -12 0 -11 27 2 73 14 53 22 41 13 -22z m444 -8 c-15 -35 -26 -48 -34 -41
-7 8 27 68 38 68 4 0 2 -12 -4 -27z"/>
<path d="M1080 1022 c0 -27 4 -42 13 -42 7 0 12 13 12 30 0 16 -6 35 -12 42
-10 10 -13 4 -13 -30z"/>
<path d="M1128 1034 c3 -19 1 -25 -7 -20 -16 11 -13 -9 4 -24 13 -11 15 -8 15
13 0 14 3 32 6 41 4 10 1 16 -9 16 -10 0 -13 -8 -9 -26z"/>
<path d="M1165 1031 c-3 -7 0 -8 9 -5 9 3 16 1 16 -5 0 -6 -7 -11 -15 -11 -8
0 -15 -7 -15 -15 0 -11 13 -15 54 -15 48 0 54 2 49 19 -3 10 0 22 6 25 7 5 11
-3 11 -18 0 -14 5 -26 11 -26 6 0 9 12 7 27 -3 25 -7 28 -44 29 -38 1 -40 -1
-36 -22 2 -13 0 -24 -6 -24 -6 0 -12 10 -14 22 -3 24 -23 35 -33 19z m81 -38
c-11 -11 -19 6 -11 24 8 17 8 17 12 0 3 -10 2 -21 -1 -24z"/>
<path d="M1314 1026 c-10 -25 3 -46 28 -45 22 1 22 1 -2 9 -25 8 -25 8 -2 9
17 1 22 6 20 18 -4 23 -36 29 -44 9z m26 -6 c0 -5 -5 -10 -11 -10 -5 0 -7 5
-4 10 3 6 8 10 11 10 2 0 4 -4 4 -10z"/>
<path d="M610 800 c0 -40 4 -70 10 -70 6 0 10 30 10 70 0 40 -4 70 -10 70 -6
0 -10 -30 -10 -70z"/>
<path d="M1650 860 c0 -5 7 -10 16 -10 8 0 12 5 9 10 -3 6 -10 10 -16 10 -5 0
-9 -4 -9 -10z"/>
<path d="M1880 860 c0 -5 5 -10 10 -10 6 0 10 5 10 10 0 6 -4 10 -10 10 -5 0
-10 -4 -10 -10z"/>
<path d="M103 815 c-3 -9 2 -24 12 -35 9 -10 15 -25 12 -32 -4 -10 -6 -10 -6
0 -1 17 -21 15 -21 -3 0 -9 9 -15 25 -15 29 0 32 19 9 56 -9 13 -14 27 -10 31
3 3 6 1 6 -5 0 -7 5 -12 10 -12 6 0 10 7 10 15 0 20 -39 19 -47 0z"/>
<path d="M355 819 c-4 -6 -4 -13 0 -17 3 -3 10 0 14 7 6 10 10 10 16 1 4 -7
-2 -18 -14 -26 -30 -22 -28 -54 4 -54 23 0 25 3 25 50 0 43 -3 50 -19 50 -11
0 -23 -5 -26 -11z m26 -72 c-8 -8 -11 -7 -11 4 0 20 13 34 18 19 3 -7 -1 -17
-7 -23z"/>
<path d="M835 820 c-4 -6 -4 -14 0 -18 4 -4 10 -1 12 6 3 6 9 12 14 12 16 0 9
-21 -13 -39 -27 -23 -18 -51 17 -51 25 0 26 2 23 48 -3 39 -6 47 -25 50 -11 2
-24 -2 -28 -8z m31 -77 c-11 -11 -19 6 -11 24 8 17 8 17 12 0 3 -10 2 -21 -1
-24z"/>
<path d="M1090 780 c0 -27 5 -50 10 -50 6 0 10 20 10 45 0 25 5 45 10 45 6 0
10 -20 10 -45 0 -25 5 -45 10 -45 6 0 10 20 10 45 0 25 5 45 10 45 6 0 10 -20
10 -45 0 -25 5 -45 11 -45 6 0 9 19 7 48 l-3 47 -47 3 -48 2 0 -50z"/>
<path d="M1394 817 c-3 -8 -4 -30 -2 -49 2 -25 8 -34 25 -36 24 -4 38 26 31
69 -4 28 -45 39 -54 16z m36 -37 c0 -22 -4 -40 -10 -40 -5 0 -10 18 -10 40 0
22 5 40 10 40 6 0 10 -18 10 -40z"/>
<path d="M1648 763 c-4 -76 -4 -78 11 -68 13 8 15 135 2 135 -5 0 -11 -30 -13
-67z"/>
<path d="M1880 780 c0 -27 5 -50 10 -50 6 0 10 23 10 50 0 28 -4 50 -10 50 -5
0 -10 -22 -10 -50z"/>
</g>
</svg>
